<svg viewBox="0 0 66 75" version="1.1" xmlns="http://www.w3.org/2000/svg" xmlns:xlink="http://www.w3.org/1999/xlink">
    <!-- Generator: sketchtool 55.1 (78136) - https://sketchapp.com -->
    <title>7762E65C-487A-4B35-8FB7-96B580D77424</title>
    <desc>Created with sketchtool.</desc>
    <g id="Design" stroke="none" stroke-width="1" fill="none" fill-rule="evenodd">
        <g id="05-About-Us" transform="translate(-129.000000, -1533.000000)" fill="#FF703B" fill-rule="nonzero">
            <g id="Technology-Partners" transform="translate(45.000000, 1469.000000)">
                <g id="noun_Award_2369340" transform="translate(84.000000, 64.000000)">
                    <g id="Group">
                        <g id="09-award">
                            <g id="Group">
                                <path d="M46.9096241,74.8609566 L18.7638496,74.8609566 C18.0989344,74.8642523 17.4638503,74.5859348 17.0165743,74.095206 C16.5692982,73.6044772 16.3518677,72.9474584 16.4183684,72.2875828 L18.7638496,48.893543 C18.8847404,47.6936597 19.9002867,46.7820362 21.1093308,46.7880496 L44.5641429,46.7880496 C45.773187,46.7820362 46.7887333,47.6936597 46.9096241,48.893543 L49.2551053,72.2875828 C49.321606,72.9474584 49.1041755,73.6044772 48.6568994,74.095206 C48.2096234,74.5859348 47.5745393,74.8642523 46.9096241,74.8609566 Z M21.3673338,70.1821192 L44.3295947,70.1821192 L42.4532098,51.4668874 L23.2437187,51.4668874 L21.3673338,70.1821192 Z" id="Shape"/>
                                <path d="M51.6005865,74.8609272 L14.0728872,74.8609272 C12.7775137,74.8609272 11.727406,73.8135403 11.727406,72.5215232 C11.727406,71.229506 12.7775137,70.1821192 14.0728872,70.1821192 L51.6005865,70.1821192 C52.89596,70.1821192 53.9460677,71.229506 53.9460677,72.5215232 C53.9460677,73.8135403 52.89596,74.8609272 51.6005865,74.8609272 Z" id="Path"/>
                                <path d="M32.8367368,42.1092715 C22.4737488,42.1092715 14.0728872,33.7301768 14.0728872,23.3940397 L14.0728872,2.33940397 C14.0728872,1.04738684 15.1229949,0 16.4183684,0 L49.2551053,0 C50.5504788,0 51.6005865,1.04738684 51.6005865,2.33940397 L51.6005865,23.3940397 C51.6005865,33.7301768 43.1997248,42.1092715 32.8367368,42.1092715 Z M18.7638496,4.67880795 L18.7638496,23.3940397 C18.7638496,31.1461426 25.0644958,37.4304636 32.8367368,37.4304636 C40.6089778,37.4304636 46.9096241,31.1461426 46.9096241,23.3940397 L46.9096241,4.67880795 L18.7638496,4.67880795 Z" id="Shape"/>
                                <path d="M32.8367368,51.4668874 C31.5413633,51.4668874 30.4912556,50.4195006 30.4912556,49.1274834 L30.4912556,39.7698675 C30.4912556,38.4778504 31.5413633,37.4304636 32.8367368,37.4304636 C34.1321103,37.4304636 35.182218,38.4778504 35.182218,39.7698675 L35.182218,49.1274834 C35.182218,50.4195006 34.1321103,51.4668874 32.8367368,51.4668874 Z" id="Path"/>
                                <path d="M49.2551053,28.0728477 C47.9597318,28.0728477 46.9096241,27.0254608 46.9096241,25.7334437 C46.9096241,24.4414266 47.9597318,23.3940397 49.2551053,23.3940397 C55.7319728,23.3940397 60.9825113,18.1571056 60.9825113,11.6970199 L60.9825113,4.67880795 L49.2551053,4.67880795 C47.9597318,4.67880795 46.9096241,3.63142111 46.9096241,2.33940397 C46.9096241,1.04738684 47.9597318,0 49.2551053,0 L63.3279925,0 C64.623366,0 65.6734737,1.04738684 65.6734737,2.33940397 L65.6734737,11.6970199 C65.6734737,20.7411398 58.3227198,28.0728477 49.2551053,28.0728477 Z" id="Path"/>
                                <path d="M16.4183684,28.0728477 C7.35075393,28.0728477 -6.1284311e-16,20.7411398 -6.1284311e-16,11.6970199 L-6.1284311e-16,2.33940397 C-6.1284311e-16,1.71895546 0.247112489,1.12391891 0.686975539,0.68519556 C1.12683859,0.246472211 1.72342091,0 2.3454812,0 L16.4183684,0 C17.7137419,0 18.7638496,1.04738684 18.7638496,2.33940397 C18.7638496,3.63142111 17.7137419,4.67880795 16.4183684,4.67880795 L4.69096241,4.67880795 L4.69096241,11.6970199 C4.69096241,18.1571056 9.94150092,23.3940397 16.4183684,23.3940397 C17.7137419,23.3940397 18.7638496,24.4414266 18.7638496,25.7334437 C18.7638496,27.0254608 17.7137419,28.0728477 16.4183684,28.0728477 Z" id="Path"/>
                                <path d="M32.8367368,32.7516556 C31.5413633,32.7516556 30.4912556,31.7042688 30.4912556,30.4122517 C30.4912556,29.1202345 31.5413633,28.0728477 32.8367368,28.0728477 C35.4274838,28.0728477 37.5276992,25.978074 37.5276992,23.3940397 C37.5276992,22.1020226 38.577807,21.0546358 39.8731805,21.0546358 C41.168554,21.0546358 42.2186617,22.1020226 42.2186617,23.3940397 C42.2186617,28.5621083 38.0182308,32.7516556 32.8367368,32.7516556 Z" id="Path"/>
                            </g>
                        </g>
                    </g>
                </g>
            </g>
        </g>
    </g>
</svg>