<svg viewBox="0 0 21 21" version="1.1" xmlns="http://www.w3.org/2000/svg" xmlns:xlink="http://www.w3.org/1999/xlink">
    <!-- Generator: sketchtool 56.3 (101010) - https://sketch.com -->
    <title>142C572E-DB27-4DE2-B371-C689B23AED2E</title>
    <desc>Created with sketchtool.</desc>
    <path fill="#f15924" d="M11.5804692,15.3808779 L13.6004652,13.3608819 C14.020226,12.9411211 14.644625,12.7960143 15.1946267,12.984621 C16.3242558,13.357802 17.5303137,13.5520833 18.75,13.5520833 C19.610565,13.5520833 20.3125,14.2540184 20.3125,15.1145833 L20.3125,18.75 C20.3125,19.610565 19.610565,20.3125 18.75,20.3125 C8.68110169,20.3125 0.520833333,12.1522316 0.520833333,2.08333333 C0.520833333,1.22276836 1.22276836,0.520833333 2.08333333,0.520833333 L5.72916667,0.520833333 C6.58973164,0.520833333 7.29166667,1.22276836 7.29166667,2.08333333 C7.29166667,3.30952266 7.4846916,4.5052745 7.86145506,5.64592365 C8.03696225,6.20435561 7.89518395,6.81013561 7.47245145,7.23286812 L5.45173763,9.25358193 C6.84800679,11.834433 8.98525458,13.9693209 11.5804692,15.3808779 Z M6.73588188,6.49629855 C6.88114707,6.35103337 6.92810381,6.15040003 6.87003767,5.96546003 C6.4608301,4.72677767 6.25,3.42072626 6.25,2.08333333 C6.25,1.79806497 6.01443503,1.5625 5.72916667,1.5625 L2.08333333,1.5625 C1.79806497,1.5625 1.5625,1.79806497 1.5625,2.08333333 C1.5625,11.576935 9.25639831,19.2708333 18.75,19.2708333 C19.0352684,19.2708333 19.2708333,19.0352684 19.2708333,18.75 L19.2708333,15.1145833 C19.2708333,14.829315 19.0352684,14.59375 18.75,14.59375 C17.4192263,14.59375 16.102862,14.3816997 14.8623311,13.9718468 C14.6833525,13.9104828 14.4757602,13.958726 14.3370348,14.0974514 L11.777159,16.6573273 L11.4395847,16.4843652 C8.38644817,14.9200373 5.89422411,12.4306103 4.34830432,9.39244851 L4.17679513,9.0553853 L6.73588188,6.49629855 Z M19.2791323,7.29155379 C19.4075973,7.54892179 19.3031008,7.86170125 19.0457327,7.99016626 C18.7883647,8.11863126 18.4755853,8.01413474 18.3471203,7.75676673 C17.7198353,6.50005803 16.9085961,5.31164102 15.9047744,4.30781924 C15.0157584,3.41880326 13.9966226,2.70779964 12.7412296,2.01552518 C12.489341,1.87662359 12.3977468,1.55982551 12.5366484,1.30793685 C12.67555,1.05604819 12.9923481,0.964454067 13.2442368,1.10335566 C14.5780875,1.83889485 15.6725325,2.60243827 16.6413439,3.57124968 C17.7316172,4.66152293 18.6049738,5.94093842 19.2791323,7.29155379 Z M17.1382228,8.02564976 C17.2412564,8.29421193 17.1070689,8.59544978 16.8385067,8.69848333 C16.5699446,8.80151688 16.2687067,8.66732942 16.1656732,8.39876725 C15.8564172,7.59267602 15.2346314,6.68099555 14.4121363,5.85850037 C13.6663964,5.11276055 12.8462603,4.53058696 12.0935299,4.19673388 C11.8305837,4.08011124 11.711965,3.77240989 11.8285876,3.50946367 C11.9452103,3.24651746 12.2529116,3.12789876 12.5158578,3.24452139 C13.3912354,3.63277127 14.3159671,4.28919205 15.1487058,5.1219308 C16.0694546,6.04267954 16.7734914,7.07495885 17.1382228,8.02564976 Z M14.9967867,8.80348985 C15.0529037,9.08561114 14.8696911,9.35980753 14.5875698,9.41592461 C14.3054485,9.4720417 14.0312522,9.28882909 13.9751351,9.0067078 C13.8614825,8.43533417 13.522162,7.82740351 13.0117358,7.31697735 C12.5487533,6.8539948 12.0048057,6.53077573 11.4773834,6.38983426 C11.1994864,6.31557266 11.0344072,6.03009168 11.1086688,5.75219463 C11.1829304,5.47429759 11.4684114,5.30921844 11.7463085,5.38348004 C12.4552924,5.5729397 13.1589689,5.99107128 13.7483054,6.58040777 C14.4000418,7.23214421 14.8415802,8.02320959 14.9967867,8.80348985 Z" id="path-1"/>
</svg>