<svg viewBox="0 0 23 21" version="1.1" xmlns="http://www.w3.org/2000/svg" xmlns:xlink="http://www.w3.org/1999/xlink">
    <!-- Generator: sketchtool 56.3 (101010) - https://sketch.com -->
    <title>7ADA3E26-5AA5-4278-A048-D2CA82F451BA</title>
    <desc>Created with sketchtool.</desc>
    <path fill="#f15924" d="M8.09353438,18.2980774 L8.09353438,19.6526436 L21.2887928,19.6526436 L8.09353438,6.27283631 L8.09353438,10.6129811 L9.15678857,10.6129811 C9.37489202,10.6129811 9.56573253,10.8064907 9.56573253,11.0276445 C9.56573253,11.2487984 9.37489202,11.442308 9.15678857,11.442308 L8.09353438,11.442308 L8.09353438,13.1009619 L10.4108833,13.1009619 C10.6289868,13.1009619 10.8198273,13.2944715 10.8198273,13.5156253 C10.8198273,13.7367792 10.6289868,13.9302888 10.4108833,13.9302888 L8.09353438,13.9302888 L8.09353438,15.2295674 L9.15678857,15.2295674 C9.37489202,15.2295674 9.56573253,15.423077 9.56573253,15.6442309 C9.56573253,15.8653847 9.37489202,16.0588943 9.15678857,16.0588943 L8.09353438,16.0588943 L8.09353438,17.4687505 L10.4108833,17.4687505 C10.6289868,17.4687505 10.8198273,17.6622601 10.8198273,17.883414 C10.8198273,18.1045678 10.6289868,18.2980774 10.4108833,18.2980774 L8.09353438,18.2980774 Z M1.0869612,4.28245201 L1.0869612,5.00120176 L1.74127153,5.00120176 C1.95937497,5.00120176 2.15021549,5.19471137 2.15021549,5.41586522 C2.15021549,5.63701907 1.95937497,5.83052868 1.74127153,5.83052868 L1.0869612,5.83052868 L1.0869612,6.35576947 L2.69547409,6.35576947 C2.91357754,6.35576947 3.10441805,6.54927908 3.10441805,6.77043293 C3.10441805,6.99158677 2.91357754,7.18509639 2.69547409,7.18509639 L1.0869612,7.18509639 L1.0869612,7.93149027 L1.74127153,7.93149027 C1.95937497,7.93149027 2.15021549,8.12499989 2.15021549,8.34615373 C2.15021549,8.56730758 1.95937497,8.76081719 1.74127153,8.76081719 L1.0869612,8.76081719 L1.0869612,9.28605748 L2.69547409,9.28605748 C2.91357754,9.28605748 3.10441805,9.4795671 3.10441805,9.70072094 C3.10441805,9.92187479 2.91357754,10.1153844 2.69547409,10.1153844 L1.0869612,10.1153844 L1.0869612,10.8341342 L1.74127153,10.8341342 C1.95937497,10.8341342 2.15021549,11.0276438 2.15021549,11.2487976 C2.15021549,11.4699515 1.95937497,11.6634611 1.74127153,11.6634611 L1.0869612,11.6634611 L1.0869612,12.1887024 L2.69547409,12.1887024 C2.91357754,12.1887024 3.10441805,12.382212 3.10441805,12.6033658 C3.10441805,12.8245197 2.91357754,13.0180293 2.69547409,13.0180293 L1.0869612,13.0180293 L1.0869612,13.7644227 L1.74127153,13.7644227 C1.95937497,13.7644227 2.15021549,13.9579323 2.15021549,14.1790861 C2.15021549,14.40024 1.95937497,14.5937496 1.74127153,14.5937496 L1.0869612,14.5937496 L1.0869612,15.1189909 L2.69547409,15.1189909 C2.91357754,15.1189909 3.10441805,15.3125005 3.10441805,15.5336543 C3.10441805,15.7548082 2.91357754,15.9483178 2.69547409,15.9483178 L1.0869612,15.9483178 L1.0869612,16.6947112 L1.74127153,16.6947112 C1.95937497,16.6947112 2.15021549,16.8882208 2.15021549,17.1093746 C2.15021549,17.3305285 1.95937497,17.5240381 1.74127153,17.5240381 L1.0869612,17.5240381 L1.0869612,19.6526451 L5.28545277,19.6526451 L5.28545277,1.21394231 L1.0869612,1.21394231 L1.0869612,2.09855776 L1.74127153,2.09855776 C1.95937497,2.09855776 2.15021549,2.29206737 2.15021549,2.51322122 C2.15021549,2.73437506 1.95937497,2.92788468 1.74127153,2.92788468 L1.0869612,2.92788468 L1.0869612,3.45312509 L2.69547409,3.45312509 C2.91357754,3.45312509 3.10441805,3.64663471 3.10441805,3.86778855 C3.10441805,4.0889424 2.91357754,4.28245201 2.69547409,4.28245201 L1.0869612,4.28245201 Z M5.69439637,20.4819704 L0.67801723,20.4819704 C0.45991379,20.4819704 0.269073279,20.2884608 0.269073279,20.067307 L0.269073279,0.799278839 C0.269073279,0.578125001 0.45991379,0.384615393 0.67801723,0.384615393 L5.69439637,0.384615393 C5.91249981,0.384615393 6.10334032,0.578125001 6.10334032,0.799278839 L6.10334032,20.0396628 C6.10334032,20.2884608 5.91249981,20.4819704 5.69439637,20.4819704 Z M22.2702588,20.4819714 L7.68459043,20.4819714 C7.46648698,20.4819714 7.27564646,20.2884618 7.27564646,20.067308 L7.27564646,5.27764405 C7.27564646,5.11177866 7.38469819,4.94591327 7.52101284,4.89062481 C7.68459043,4.83533634 7.84816802,4.86298058 7.95721975,4.9735575 L22.5428882,19.7632214 C22.6519399,19.8737983 22.7064658,20.067308 22.624677,20.2055291 C22.5428882,20.3437503 22.4338364,20.4819714 22.2702588,20.4819714 Z" id="path-1"/>
</svg>