<svg viewBox="0 0 34 40" version="1.1" xmlns="http://www.w3.org/2000/svg" xmlns:xlink="http://www.w3.org/1999/xlink">
    <!-- Generator: sketchtool 56.3 (101010) - https://sketch.com -->
    <title>74A5FC3D-AC9C-40CA-B0D3-2B4D462AB16A</title>
    <desc>Created with sketchtool.</desc>
    <path fill="#1c7396" shape-rendering="geometricPrecision" d="M31.057121,0 L13.6608244,0 C12.4250219,0 11.4268737,0.997781275 11.4268737,2.23312952 L11.4268737,36.7278536 C11.4268737,37.9631971 12.4250219,38.9609793 13.6608244,38.9609793 L31.057121,38.9609793 C32.2929235,38.9609793 33.2910717,38.0107105 33.2910717,36.7753622 L33.2910717,2.23312952 C33.2910717,0.997781275 32.2929235,0 31.057121,0 Z M27.2071195,0.950267877 L26.7318108,1.42540181 C26.4466257,1.71048218 26.1139049,1.85302236 25.7336627,1.90053575 L19.364527,1.90053575 C18.9842801,1.90053575 18.6040332,1.75799557 18.3663789,1.47291521 L17.7960085,0.950267877 L27.2071195,0.950267877 Z M32.3404544,36.7753668 C32.3404544,37.4880677 31.770084,38.0107151 31.057121,38.0107151 L13.6608244,38.0107151 C12.9478614,38.0107151 12.377491,37.4405543 12.377491,36.7278534 L12.377491,2.23312951 C12.377491,1.5204286 12.9478614,0.950267877 13.6608244,0.950267877 L16.4651454,0.950267877 L17.7009479,2.13810272 C18.1287257,2.61323666 18.7466269,2.89831702 19.412059,2.85080363 L25.6861332,2.85080363 C26.3040345,2.80329024 26.9219357,2.56572327 27.3497135,2.13810272 L28.5379852,0.950267877 L31.057121,0.950267877 C31.770084,0.950267877 32.3404544,1.5204286 32.3404544,2.23312951 L32.3404544,36.7753668 Z M14.9441575,29.2682508 C14.9441575,29.2682508 14.9916884,29.2682508 14.9916884,29.2207374 L14.9916884,29.2207374 L23.0719357,24.5644248 C23.2145283,24.469398 23.30959,24.3268578 23.30959,24.1368042 L23.30959,14.8241791 C23.30959,14.6341255 23.2145283,14.4915853 23.0719357,14.3965585 L14.9916884,9.74024592 C14.8490958,9.64521913 14.6589723,9.64521913 14.5163797,9.74024592 L13.0904537,10.5479736 C12.8527994,10.6905138 12.8052685,10.9755942 12.9003302,11.2131611 C13.0429228,11.4507281 13.328108,11.4982415 13.5657624,11.4032147 L14.754034,10.7380272 L21.883664,14.8716924 L14.754034,19.0053577 L13.5657624,18.3401702 C13.328108,18.19763 13.0429228,18.2926568 12.9003302,18.5302238 C12.7577376,18.7677907 12.8527994,19.0528711 13.0904537,19.1954113 L13.0904537,19.1954113 L14.2787254,19.8605988 L14.2787254,28.0804207 L13.5657624,27.5577686 C13.328108,27.4152284 13.0429228,27.5102552 12.9003302,27.7478222 C12.7577376,27.9853891 12.8527994,28.2704695 13.0904537,28.4130097 L14.5163797,29.2207374 C14.6114414,29.2682508 14.6589723,29.2682508 14.754034,29.2682508 L14.754034,29.2682508 L14.754034,29.2682508 C14.8015649,29.2682508 14.8490958,29.2682508 14.8490958,29.2682508 C14.8490958,29.2682508 14.8490958,29.2682508 14.9441575,29.2682508 C14.8966266,29.2682508 14.8966266,29.2682508 14.9441575,29.2682508 Z M15.2293429,27.9853897 L15.2293429,19.7655726 L22.3589727,15.6319073 L22.3589727,23.8517244 L15.2293429,27.9853897 Z M10.7139106,13.0186702 L7.62440431,14.8241792 L10.7139106,16.6296882 C10.9515649,16.7722284 10.9990957,17.0573088 10.904034,17.2948758 C10.8089723,17.5324427 10.4762562,17.5799561 10.2386019,17.4849293 L10.2386019,17.4849293 L7.14909566,15.6319069 L7.14909566,23.8517243 L10.7139106,25.8948003 C10.9515649,26.0373405 10.9990957,26.3224208 10.904034,26.5599878 C10.7614414,26.7975548 10.4762562,26.8450682 10.2386019,26.7500414 L6.673787,24.7069654 L6.10341662,25.0395592 C5.86576229,25.1820993 5.5805771,25.0870726 5.43798451,24.8495056 C5.29539191,24.6119386 5.39045364,24.3268582 5.62810797,24.184318 L5.62810797,24.184318 L5.7231697,24.1368047 L5.62810797,24.0892913 C5.39045364,23.9467511 5.34292277,23.6616707 5.43798451,23.4241037 C5.53304624,23.1865367 5.86576229,23.1390234 6.10341662,23.2340501 L6.19847835,23.2815635 L6.19847835,14.8241792 C6.19847835,14.7766658 6.19847835,14.7291524 6.24600922,14.681639 L6.24600922,14.6341256 C6.24600922,14.5866122 6.29354008,14.5390988 6.34107095,14.4915854 L6.34107095,14.4915854 C6.38860181,14.4440768 6.38860181,14.4440768 6.43613268,14.3965587 L10.2386019,12.2109425 C10.4762562,12.068407 10.7614414,12.1634338 10.904034,12.4010008 C11.0466266,12.6385678 10.9515649,12.9236434 10.7139106,13.0186702 L10.7139106,13.0186702 Z M1.73057695,26.9876074 C1.87316955,27.2251744 1.77810782,27.5102547 1.54045349,27.6527949 L1.54045349,27.6527949 L0.732428774,28.1279289 C0.494774446,28.2704738 0.209589252,28.1754423 0.0669966547,27.9378753 C-0.0755959423,27.7003083 0.019465789,27.415228 0.257120117,27.2726878 L1.06514483,26.7975538 C1.30279916,26.702527 1.58798436,26.7500404 1.73057695,26.9876074 L1.73057695,26.9876074 Z M4.48736722,25.4196655 C4.62995982,25.6572325 4.53489809,25.9423128 4.29724375,26.084853 L4.29724375,26.084853 L3.29909555,26.6075003 C3.06144122,26.7500405 2.77625602,26.6550137 2.63366342,26.4174468 C2.49107082,26.1798798 2.58613255,25.8947994 2.82378689,25.7522593 L3.82193509,25.1820985 C4.05958942,25.0870718 4.34477462,25.1820985 4.48736722,25.4196655 L4.48736722,25.4196655 Z M4.487367,22.9014559 C4.34477441,23.1390229 4.05958922,23.1865363 3.8219349,23.0915095 L2.82378676,22.5213487 C2.58613245,22.3788086 2.53860158,22.0937282 2.63366331,21.8561612 C2.7762559,21.6185943 3.06144108,21.5710809 3.2990954,21.6661076 L3.2990954,21.6661076 L4.29724354,22.2362684 C4.53489786,22.3788086 4.62995959,22.6638889 4.487367,22.9014559 L4.487367,22.9014559 Z M1.73057695,21.2860001 C1.58798435,21.5235671 1.30279916,21.5710805 1.06514483,21.4760537 L0.257120116,21.0009198 C0.0194657889,20.8583796 -0.0280650766,20.5732992 0.0669966544,20.3357323 C0.209589251,20.0981653 0.494774444,20.0506519 0.732428771,20.1456787 L0.732428771,20.1456787 L1.54045348,20.6208126 C1.77810781,20.7633528 1.87316954,21.0484332 1.73057695,21.2860001 L1.73057695,21.2860001 L1.73057695,21.2860001 Z M22.3589727,31.8339739 C21.0281085,31.8339739 19.9824294,32.8792685 19.9824294,34.2096436 C19.9824294,35.5400186 21.0281085,36.5853132 22.3589727,36.5853132 C23.6898369,36.5853132 24.7355159,35.5400186 24.7355159,34.2096436 C24.7355159,32.8792685 23.6898369,31.8339739 22.3589727,31.8339739 Z M22.3589727,35.6350454 C21.550948,35.6350454 20.9330467,35.0173712 20.9330467,34.2096436 C20.9330467,33.4019159 21.550948,32.7842417 22.3589727,32.7842417 C23.1669974,32.7842417 23.7848986,33.4019159 23.7848986,34.2096436 C23.7848986,35.0173712 23.1669974,35.6350454 22.3589727,35.6350454 Z" id="path-1"/>
</svg>