<svg width="100px" height="100px" viewBox="0 0 100 100" version="1.1" xmlns="http://www.w3.org/2000/svg" xmlns:xlink="http://www.w3.org/1999/xlink">
    <!-- Generator: sketchtool 56.3 (101010) - https://sketch.com -->
    <title>F87714AF-31E9-4EBC-ACC9-6D67AAA99082</title>
    <desc>Created with sketchtool.</desc>
    <path fill="#F15924" d="M39.3333333,71.2916667 L68.8333333,49.1666667 L39.3333333,27.0416667 L39.3333333,71.2916667 Z M49.1666667,0 C22.0266667,0 0,22.0266667 0,49.1666667 C0,76.3066667 22.0266667,98.3333333 49.1666667,98.3333333 C76.3066667,98.3333333 98.3333333,76.3066667 98.3333333,49.1666667 C98.3333333,22.0266667 76.3066667,0 49.1666667,0 Z M49.1666667,88.5 C27.4841667,88.5 9.83333333,70.8491667 9.83333333,49.1666667 C9.83333333,27.4841667 27.4841667,9.83333333 49.1666667,9.83333333 C70.8491667,9.83333333 88.5,27.4841667 88.5,49.1666667 C88.5,70.8491667 70.8491667,88.5 49.1666667,88.5 Z" id="path-1"/>
</svg>